{"title":"Battle Los Angeles 2011 CAM XVID READ NFO LKRG","uid":6239150,"size":1204030013,"categoryP":"video","categoryS":"movies","magnet":"?xt=urn:btih:a0ae19db0ba6917f18c56cd24f40894b858a42cd&amp;dn=Battle+Los+Angeles+2011+CAM+XVID+READ+NFO+LKRG&amp;tr=udp%3A%2F%2Ftracker.openbittorrent.com%3A80&amp;tr=udp%3A%2F%2Fopen.demonii.com%3A1337&amp;tr=udp%3A%2F%2Ftracker.coppersurfer.tk%3A6969&amp;tr=udp%3A%2F%2Fexodus.desync.com%3A6969","seeders":0,"leechers":1,"uploader":"hshahaz","files":6,"time":1299998132,"description":"[img]http://www.grinshare.com/img/IB3PMU.jpg[/img]\n\nVideo\nID : 0\nFormat : MPEG-4 Visual\nFormat profile : Advanced Simple@L5\nFormat settings, BVOP : Yes\nFormat settings, QPel : No\nFormat settings, GMC : No warppoints\nFormat settings, Matrix : Custom\nCodec ID : XVID\nCodec ID/Hint : XviD\nDuration : 1h 50mn\nBit rate : 1 126 Kbps\nWidth : 680 pixels\nHeight : 314 pixels\nDisplay aspect ratio : 2.2:1\nFrame rate : 25.000 fps\nColor space : YUV\nChroma subsampling : 4:2:0\nBit depth : 8 bits\nScan type : Progressive\nBits/(Pixel*Frame) : 0.211\nStream size : 44.0 MiB (4%)\nWriting library : XviD 1.2.1 (UTC 2008-12-04)\n\nAudio\nID : 1\nFormat : MPEG Audio\nCodec ID : 55\nCodec ID/Hint : MP3\nDuration : 1h 50mn\nBit rate : 128 Kbps\nChannel(s) : 2 channels\nSampling rate : 44.1 KHz\nStream size : 101 MiB (9%)\nAlignment : Aligned on interleaves\n\n\nA Marine platoon faces off against an alien invasion in Los Angeles.\n\n\nFrom NFO:Video:ELEKTRI4KA thanks\n\nAudio:Own\n\nOkay here we go with the first cam for Batlle La the cam it\\'s self was very good had slight issues was dull and kinda blurry dark scenes had a red glare so adjusted colors and sharpened a tad usual video filters also towards the last 30 minutes or so a big ass head pops up in and out till ending\n\nwasn\\'t that distracting so i didn\\'t bother cropping it the dark scenes had some issues as well but not to many of them so no biggie.\n\nOn to audio our audio was pretty decent i choose to lower bass so you can hear the vocals better more important in this movie to pay attention so the real loud effects scenes you will probably hear some light static no biggie.\nAlso i had to cut about 1 minute from the movie due to our audio missing about 50 minutes in but you don\\'t miss much and towards end about last 20 minutes audio goes oos for about a minute due to russian source missing a few seconds\nbut once again only for a minute all in all very watchable 2 samples are included shownig different audio so no need to bitch if you don\\'t like it wait for line which if no one gets we will do a v2 with line next weekend till then enjoy.\n\n\n[img]http://www.grinshare.com/img/L586X2.png[/img]\n[img]http://www.grinshare.com/img/Z085XC.png[/img]\n[img]http://www.grinshare.com/img/7EODPM.png[/img]\n[img]http://www.grinshare.com/img/OG3YNW.png[/img]\n[img]http://www.grinshare.com/img/Q9QGM7.png[/img]\n[img]http://www.grinshare.com/img/M5C9T7.png[/img]","torrent":{"xt":"urn:btih:a0ae19db0ba6917f18c56cd24f40894b858a42cd","amp;dn":"Battle+Los+Angeles+2011+CAM+XVID+READ+NFO+LKRG","amp;tr":["udp%3A%2F%2Ftracker.openbittorrent.com%3A80","udp%3A%2F%2Fopen.demonii.com%3A1337","udp%3A%2F%2Ftracker.coppersurfer.tk%3A6969","udp%3A%2F%2Fexodus.desync.com%3A6969"],"infoHash":"a0ae19db0ba6917f18c56cd24f40894b858a42cd","infoHashBuffer":{"type":"Buffer","data":[160,174,25,219,11,166,145,127,24,197,108,210,79,64,137,75,133,138,66,205]},"announce":[],"urlList":[]}}